<svg xmlns="http://www.w3.org/2000/svg" viewBox="0 0 128 128">
  <path fill="#336791" d="M93.8 66.7c-5.5-1.3-8.2-.8-10.7.5-.2-1.5-.4-2.8-.5-4.1-.4-4.5-.3-8.3 2-13.5 1.5-3.4 4.5-7.3 7-10.5 1.1-1.4 2-2.9 2.3-4.1.4-1.5.5-3.3-.8-5.3-3.5-5.4-8.5-9.8-14.5-12.4-1.8-.8-4.3-1.4-6.1-1.3-1.4.1-2.5.6-3.3 1.4-.4-.1-.8-.1-1.2-.2-3.6-.5-7.3-.3-10.8.5-.5-.6-1.1-1.2-1.8-1.7-1.8-1.3-4.2-2-7.1-2-5.4 0-11.8 2.5-17.1 6.8-5.3 4.4-9.3 10.5-10.5 17-.4 2.1-.5 4.2-.3 6.3.2 2.1.7 4.2 1.5 6.1-1.7 3.2-2.8 6.7-3.2 10.4-.5 4.4.2 9.1 2.3 13.8 3.9 8.8 12.1 17.3 22.8 20.8 3.2 1.1 6.6 1.6 9.9 1.6 2.9 0 5.7-.4 8.4-1.2 3.6 2.7 8 4.5 12.7 5.3 1.7.3 3.5.4 5.2.4 5.5 0 10.8-1.5 15.4-4.3 5.7-3.5 10.3-8.9 12.6-15.6 2-5.9 2.1-12.2.3-18.1-.8-2.4-1.9-4.7-3.4-6.7z"/>
  <path fill="#fff" d="M88.7 71.3c-2.7-1.2-5.8-1-8.5.1.1-2.9-.1-5.7-.5-8.4-.5-3.5-.2-6.5 1.5-10.3 1.5-3.3 4.3-6.9 6.6-9.8.8-1 1.4-2 1.6-2.8.2-.7.2-1.5-.4-2.4-2.8-4.4-7-8-12-10.2-1.4-.6-3.1-1-4.4-.9-.8.1-1.4.3-1.8.8-.7.7-.9 1.8-1 3.1 0 1.3.2 2.8.5 4.4.3 1.6.7 3.3 1.1 5 .4 1.7.7 3.5.8 5.2.1 1.7 0 3.3-.4 4.6-.8 2.5-2.6 4.4-5.1 5.6-2.5 1.2-5.6 1.7-9.2 1.6-1.3 0-2.5-.1-3.6-.2-1.1-.1-2.3-.3-3.4-.5-.4 0-.7-.1-1.1-.2 0 .2.1.4.1.7.3 1.8.3 3.6.1 5.4-.2 1.8-.7 3.5-1.4 5.1-1.4 3.2-3.7 5.8-6.5 7.7 2.7 1.5 5.2 3.6 7.1 6.1 2.6 3.4 4.2 7.5 4.4 11.9.1 2.2-.2 4.3-.9 6.3 2.2.8 4.6 1.2 7 1.2 2.9 0 5.7-.6 8.3-1.7 2.6-1.1 5-2.8 6.9-5 1.9-2.2 3.3-4.8 4.1-7.7.8-2.9.9-6.1.4-9.4-.4-2.4-1.1-4.7-2.1-6.8 1.5-.4 3.2-.6 4.9-.5 1.8.1 3.6.5 5.3 1.2.6-1.7.8-3.5.8-5.4 0-1.8-.3-3.7-.8-5.4-1.1.6-2.4 1.1-3.9 1.2z"/>
  <ellipse fill="#336791" cx="52" cy="42" rx="3" ry="4"/>
</svg>
